<?xml version="1.0" encoding="UTF-8" standalone="no"?>
<!DOCTYPE svg PUBLIC "-//W3C//DTD SVG 1.1//EN" "http://www.w3.org/Graphics/SVG/1.1/DTD/svg11.dtd">
<svg version="1.1" xmlns="http://www.w3.org/2000/svg" xmlns:xlink="http://www.w3.org/1999/xlink" preserveAspectRatio="xMidYMid meet" viewBox="0 0 640 640" width="640" height="640"><defs><path d="M413.67 202.97C413.67 240.12 383.51 270.28 346.35 270.28C309.2 270.28 279.04 240.12 279.04 202.97C279.04 165.82 309.2 135.65 346.35 135.65C383.51 135.65 413.67 165.82 413.67 202.97Z" id="b7KOtHU146"></path><path d="M431.25 218.33C431.25 230.98 420.98 241.25 408.33 241.25C395.69 241.25 385.42 230.98 385.42 218.33C385.42 205.69 395.69 195.42 408.33 195.42C420.98 195.42 431.25 205.69 431.25 218.33Z" id="cFEhToU9K"></path><path d="M307.29 218.33C307.29 230.98 297.02 241.25 284.37 241.25C271.73 241.25 261.46 230.98 261.46 218.33C261.46 205.69 271.73 195.42 284.37 195.42C297.02 195.42 307.29 205.69 307.29 218.33Z" id="f2GpHOU0IA"></path><path d="M408.33 218.33C408.33 252.54 380.56 280.31 346.35 280.31C312.15 280.31 284.37 252.54 284.37 218.33C284.37 184.13 312.15 156.35 346.35 156.35C380.56 156.35 408.33 184.13 408.33 218.33Z" id="a3H7WcxPS"></path><path d="M338.02 218.33C338.02 226.81 331.14 233.7 322.66 233.7C314.18 233.7 307.29 226.81 307.29 218.33C307.29 209.85 314.18 202.97 322.66 202.97C331.14 202.97 338.02 209.85 338.02 218.33Z" id="c1dtb3zOmm"></path><path d="M385.42 218.33C385.42 226.81 378.53 233.7 370.05 233.7C361.57 233.7 354.69 226.81 354.69 218.33C354.69 209.85 361.57 202.97 370.05 202.97C378.53 202.97 385.42 209.85 385.42 218.33Z" id="d2ShW6bCp"></path></defs><g><g><g><use xlink:href="#b7KOtHU146" opacity="1" fill="#ffffff" fill-opacity="1"></use><g><use xlink:href="#b7KOtHU146" opacity="1" fill-opacity="0" stroke="#d5e59b" stroke-width="13" stroke-opacity="1"></use></g></g><g><use xlink:href="#cFEhToU9K" opacity="1" fill="#ffffff" fill-opacity="1"></use><g><use xlink:href="#cFEhToU9K" opacity="1" fill-opacity="0" stroke="#d5e59b" stroke-width="13" stroke-opacity="1"></use></g></g><g><use xlink:href="#f2GpHOU0IA" opacity="1" fill="#ffffff" fill-opacity="1"></use><g><use xlink:href="#f2GpHOU0IA" opacity="1" fill-opacity="0" stroke="#d5e59b" stroke-width="13" stroke-opacity="1"></use></g></g><g><use xlink:href="#a3H7WcxPS" opacity="1" fill="#ffffff" fill-opacity="1"></use><g><use xlink:href="#a3H7WcxPS" opacity="1" fill-opacity="0" stroke="#d5e59b" stroke-width="13" stroke-opacity="1"></use></g></g><g><use xlink:href="#c1dtb3zOmm" opacity="1" fill="#ffffff" fill-opacity="1"></use><g><use xlink:href="#c1dtb3zOmm" opacity="1" fill-opacity="0" stroke="#d5e59b" stroke-width="8" stroke-opacity="1"></use></g></g><g><use xlink:href="#d2ShW6bCp" opacity="1" fill="#ffffff" fill-opacity="1"></use><g><use xlink:href="#d2ShW6bCp" opacity="1" fill-opacity="0" stroke="#d5e59b" stroke-width="8" stroke-opacity="1"></use></g></g></g></g></svg>